<?xml version="1.0" standalone="no"?><!DOCTYPE svg PUBLIC "-//W3C//DTD SVG 1.1//EN" "http://www.w3.org/Graphics/SVG/1.1/DTD/svg11.dtd"><svg t="1701085322389" class="icon" viewBox="0 0 1024 1024" version="1.1" xmlns="http://www.w3.org/2000/svg" p-id="1423" xmlns:xlink="http://www.w3.org/1999/xlink" width="200" height="200"><path d="M701.293714 11.922286a38.619429 38.619429 0 0 1 55.808 0l223.378286 223.817143a40.155429 40.155429 0 0 1 0 56.32l-502.491429 505.709714a36.571429 36.571429 0 0 1-20.772571 10.24l-278.674286 56.466286a39.643429 39.643429 0 0 1-46.445714-46.811429l55.808-280.283429a39.058286 39.058286 0 0 1 11.483429-21.430857L701.293714 11.922286z m27.867429 84.114285L282.477714 544.548571l167.497143 169.033143 446.756572-449.243428-167.497143-168.301715z m-478.354286 529.554286l-29.696 149.138286 148.772572-29.257143-119.003429-119.954286zM71.606857 944.566857a39.497143 39.497143 0 0 0-39.497143 39.716572c0 22.162286 17.627429 39.643429 39.497143 39.643428h868.644572c21.796571 0 39.497143-17.481143 39.497142-39.716571a39.277714 39.277714 0 0 0-39.497142-39.643429H71.533714z" fill="#1296db" p-id="1424"></path></svg>