<svg width="75" height="35" xmlns="http://www.w3.org/2000/svg">
 <g id="Layer_1">
  <title>Layer 1</title>
  <polyline stroke-linecap="round" id="svg_2" points="40.64965410495123,52.04153437273886 40.64965410495123,52.04153437273886 40.77465355347763,52.04153437273886 " fill="none"/>
  <path d="m1.39983,1.04176c0,0 0.125,0 0.25,0c0.125,0 0.25,0 0.5,0c0,0 0.125,0 0.375,0c0.125,0 0.25,0.125 0.375,0.125c0,0 0.125,0 0.125,0c0.125,0 0.16889,0.52447 -0.125,1c-0.32858,0.53165 -0.5,0.875 -0.5,0.875c0,0.125 -0.125,0.125 -0.125,0.125c-0.125,0.125 -0.19364,0.36939 -0.625,0.5c-0.11964,0.03622 -0.375,0.125 -0.5,0.125c0,0 -0.125,0 -0.25,0l0,-0.125l0,0l0,-0.125" id="svg_8" stroke="#000000" fill="none"/>
  <path d="m5.02481,4.04175c0,0 0.125,0.125 0.125,0.125c0,-0.125 0,-0.125 0,-0.375c0,-0.125 0,-0.25 0,-0.375c0,-0.125 0,-0.25 0,-0.375c0,0 -0.05735,-0.08668 -0.125,-0.25c-0.09567,-0.23097 0,-0.375 0,-0.5c0,0 0,-0.125 0,-0.125c0,-0.125 -0.125,-0.25 -0.125,-0.375c0,0 0,-0.125 0,-0.25c0,-0.125 0.08839,-0.16161 0,-0.25c-0.08839,-0.08839 -0.125,0 -0.25,0c0,0 0,-0.125 -0.125,-0.125c0,0 -0.125,0 -0.125,0c-0.125,0 -0.125,-0.125 -0.125,-0.125l-0.125,0l0,0" id="svg_11" stroke="#000000" fill="none"/>
  <path d="m5.27481,3.04175c0,-0.125 -0.05744,-0.25669 0,-0.5c0.06422,-0.27203 0.125,-0.375 0.125,-0.5c0,0 0.05735,-0.08668 0.125,-0.25c0.04784,-0.11548 0.13451,-0.20216 0.25,-0.25c0.16332,-0.06765 0.25,-0.125 0.375,-0.25c0.125,-0.125 0.25,-0.125 0.375,-0.125l0.125,0l0.25,-0.125" id="svg_12" stroke="#000000" fill="none"/>
  <path d="m7.3998,1.54176c0,-0.125 -0.125,-0.125 0,-0.125c0.125,0 0.25,-0.125 0.375,-0.125c0.125,0 0.25,-0.125 0.375,-0.125c0,0 0.125,0 0.25,0c0,0 0.125,0 0.25,0c0.125,0 0.25,0.125 0.25,0.125c-0.25,0.125 -0.375,0.25 -0.375,0.25c0,0.125 0,0.25 -0.125,0.25c-0.125,0 -0.31078,0.22797 -0.375,0.5c-0.02872,0.12166 -0.22805,0.26224 -0.375,0.5c-0.06572,0.10633 -0.125,0.25 -0.125,0.25c0,0 -0.14825,0.08657 -0.375,0.25c-0.28682,0.20673 -0.375,0.375 -0.5,0.5c0,0 0.25,0 0.375,0c0,0 0.125,0 0.125,0c0.125,0 0.125,0 0.25,0c0,0 0.125,0 0.25,0c0,0 0.25,0 0.375,0c0.125,0 0.125,0 0.25,0c0,0 0.125,0 0.25,0c0,0 0.125,0 0.125,0l0.125,0l0.125,0" id="svg_13" stroke="#000000" fill="none"/>
  <path d="m15.52477,7.16673c0,0 -0.01003,-0.03884 -0.375,-0.125c-0.54406,-0.12844 -1,-0.25 -1.37499,-0.25c-0.25,0 -0.48159,0.14664 -0.625,0.25c-0.22675,0.16343 -0.60158,0.27585 -0.875,0.5c-0.34854,0.28573 -0.75,0.625 -1,0.875c-0.375,0.375 -0.79862,0.70699 -1.125,1.125c-0.44855,0.5745 -0.7008,1.06733 -0.875,1.37499c-0.25393,0.44849 -0.31203,0.86347 -0.375,1.37499c-0.04582,0.37219 -0.03059,1.0165 0.25,1.49999c0.45243,0.77962 0.7597,1.69474 1.25,2.37499c0.41345,0.57363 0.81527,1.04759 1.12499,1.37499c0.42951,0.45403 0.97436,0.90252 1.37499,1.24999c0.47216,0.4095 0.89878,0.73519 1.125,1.12499c0.28058,0.4835 0.375,0.75 0.5,1.125c0.125,0.375 0.43703,1.23847 0.5,1.74999c0.06109,0.49625 0,0.99999 0,1.49999c0,0.375 0.05744,0.63169 0,0.875c-0.06422,0.27203 -0.36285,0.40302 -0.625,0.5c-0.48337,0.17881 -1.24224,0.43728 -1.99999,0.5c-0.49829,0.04124 -1.12499,0 -1.62499,0c-0.375,0 -0.78733,0.13143 -1,0c-0.23776,-0.14695 -0.375,-0.375 -0.625,-0.625l-0.25,-0.125l-0.125,-0.125l0,0" id="svg_15" stroke="#319aea" fill="none"/>
  <path d="m18.14975,9.79172c0.125,0 0.3767,0.04124 0.875,0c0.75775,-0.06271 1.50543,-0.34151 2.37499,-0.5c1.13376,-0.20664 2.1271,-0.48792 2.87499,-0.625c0.62693,-0.11491 0.875,-0.25 1.12499,-0.25c0.25,0 0.375,0 0.5,0c0.125,0 0.25,0 0.375,0c0,0 0.125,0 0.125,-0.125c0,0 0.125,0 0.125,0.125l0.125,0" id="svg_17" stroke="#319aea" fill="none"/>
  <path d="m20.39974,27.16665c0,0 0,-0.125 0,-0.375c0,-0.5 0.04315,-1.39711 0.25,-1.99999c0.18142,-0.52876 0.49836,-1.21963 0.625,-1.99999c0.10011,-0.61693 0.125,-1.24999 0.125,-1.62499c0,-0.375 0.06078,-0.60296 0.125,-0.875c0.05744,-0.24331 0,-0.625 0,-0.99999c0,-0.5 0,-1 0,-1.49999c0,-0.75 0,-1.49999 0,-2.12499c0,-0.5 0,-0.875 0,-1.125c0,-0.125 -0.125,-0.625 -0.125,-1.12499c0,-0.25 0,-0.5 0,-0.75c0,-0.25 0,-0.5 0,-0.625c0,-0.25 0,-0.5 0,-0.75c0,-0.125 0.125,-0.5 0.125,-0.75l0,-0.125l0.125,-0.25l0,-0.125" id="svg_18" stroke="#319aea" fill="none"/>
  <path d="m31.52469,9.79172c0,0.125 0.125,0.375 0.25,0.875c0.125,0.5 0.125,1 0.125,1.62499c0,1.37499 0.06242,2.99531 0.125,4.24998c0.02491,0.49938 0.03045,0.88402 0.125,1.37499c0.1273,0.661 0.18642,1.28353 0.5,2.49999c0.23763,0.92183 0.50872,1.49859 0.625,2.24999c0.13516,0.87348 0.57673,1.53712 0.875,1.87499c0.18498,0.20954 0.57274,0.83905 1.375,1.24999c0.95055,0.4869 1.62499,0.625 1.87499,0.625c0.125,0 0.40741,0.02867 0.625,-0.25c0.44855,-0.5745 0.89946,-1.36146 1.37499,-2.24999c0.39566,-0.7393 0.625,-1.37499 0.875,-2.12499c0.25,-0.75 0.49906,-1.60194 0.625,-2.62499c0.09164,-0.74438 0,-1.62499 0,-2.24999c0,-0.75 -0.18359,-1.44246 -0.375,-2.37499c-0.1508,-0.73468 -0.125,-1.24999 -0.125,-1.74999c0,-0.25 -0.125,-0.5 -0.125,-1c0,-0.25 0,-0.375 0,-0.5l0.125,-0.125l0,-0.125l0,0" id="svg_19" stroke="#319aea" fill="none"/>
  <path d="m48.02462,27.41664c-0.125,0 -0.125,0 -0.25,-0.625c-0.125,-0.625 -0.1761,-1.50364 -0.25,-2.24999c-0.06281,-0.63427 -0.36016,-1.62815 -0.5,-2.24999c-0.11307,-0.50283 -0.125,-1 -0.125,-1.74999c0,-0.25 0,-0.875 0,-1.37499c0,-0.625 0,-1.12499 0,-1.49999c0,-0.5 0.01193,-0.99716 0.125,-1.49999c0.13983,-0.62185 0.125,-1 0.125,-1.62499c0,-0.5 0,-1.12499 0,-1.49999c0,-0.25 0,-0.25 0,-0.375c0,-0.125 0.06078,-0.10297 0.125,-0.375c0.05744,-0.24331 0,-0.625 0,-1c0,-0.125 0,-0.5 0,-0.75c0,-0.125 0,-0.125 0,-0.25c0,0 0,-0.125 0,-0.25c0,-0.125 0,-0.375 0,-0.5c0,-0.25 0,-0.5 0,-0.625c0,0 1.21168,1.18234 1.375,1.24999c0.11549,0.04784 0.30235,0.05236 0.5,0.25c0.19764,0.19764 0.5465,0.54814 1,0.875c0.28682,0.20673 0.75,0.75 1,1c0.25,0.25 0.43131,0.43131 0.75,0.75c0.31869,0.31869 0.5912,0.5286 1.125,1.125c0.23579,0.26344 0.5,0.625 0.875,1c0.25,0.25 0.41107,0.48353 0.625,1c0.15127,0.36519 0.43668,0.60982 0.5,1c0.06007,0.37016 0.06203,0.61347 0.125,1.12499c0.06109,0.49625 0.03695,1.00182 0,1.37499c-0.06281,0.63427 -0.5,1 -0.75,1.49999c-0.25,0.5 -0.47049,0.72049 -0.75,1c-0.27951,0.27951 -0.21427,0.40146 -0.5,0.75c-0.22415,0.27342 -0.44002,0.41546 -0.625,0.625c-0.29827,0.33787 -0.44477,0.56491 -0.875,0.875c-0.22675,0.16343 -0.61478,0.63902 -1.12499,1c-0.36792,0.26031 -0.61019,0.39878 -1,0.625c-0.24175,0.14029 -0.375,0.25 -0.5,0.375c0,0 -0.125,0.125 -0.25,0.25c-0.125,0.125 -0.16546,0.06502 -0.375,0.25c-0.33788,0.29827 -0.375,0.5 -0.5,0.625l-0.125,0l0,0.125l-0.125,0" id="svg_22" stroke="#319aea" fill="none"/>
  <path d="m58.02458,9.41672c0,0 0.125,0.125 0.375,0.25c0.25,0.125 0.62067,0.38084 1.125,0.75c0.86767,0.63513 1.16375,0.79218 1.49999,1c0.30075,0.18587 0.46157,0.64825 0.625,0.875c0.20672,0.28681 0.33657,0.52325 0.5,0.75c0.10336,0.14341 0.2605,0.37002 0.375,0.625c0.27576,0.61407 0.375,0.875 0.5,1.49999c0.125,0.625 0.25,1.24999 0.25,1.74999c0,0.75 0.18728,1.36724 0.25,2.12499c0.04124,0.49829 0,1.24999 0,1.74999c0,0.625 0,1.24999 0,1.74999c0,0.625 0.14359,1.14172 0,1.74999c-0.12843,0.54406 -0.31493,1.25484 -0.375,1.62499c-0.06332,0.39018 -0.125,0.5 -0.125,0.875c0,0.25 -0.06168,0.35982 -0.125,0.75c-0.02002,0.12338 0,0.5 0,0.625c0,0.375 0.09567,0.64403 0,0.875c-0.06765,0.16332 -0.125,0.25 -0.25,0.375l0,0" id="svg_23" stroke="#319aea" fill="none"/>
  <path d="m69.64953,9.79172c0.125,0 0.19764,0.05236 0,0.25c-0.19764,0.19764 -0.625,0.375 -1.125,0.75c-0.49999,0.375 -1.0563,0.68131 -1.37499,1c-0.31869,0.31869 -0.48471,0.63325 -0.625,0.875c-0.22621,0.38981 -0.366,0.70138 -0.62499,1c-0.18314,0.21116 -0.35498,0.37661 -0.375,0.5c-0.06332,0.39018 -0.16718,0.66375 -0.375,1c-0.09293,0.15037 -0.25,0.375 -0.37499,0.5c-0.25,0.25 -0.32716,0.50951 -0.375,0.625c-0.1353,0.32664 -0.21318,0.41827 -0.5,0.625c-0.22675,0.16343 -0.28661,0.41161 -0.375,0.5c-0.08839,0.08839 -0.25,0.125 -0.25,0.25l-0.125,0.125l0,0l0,0" id="svg_24" stroke="#319aea" fill="none"/>
  <polyline stroke-linecap="round" id="svg_25" points="62.02455980296465,-3.8332191185594056 61.64956145738548,-3.70821967003301 61.1495636632799,-3.458220772980223 " stroke="#319aea" fill="none"/>
  <path d="m32.02469,-6.95821c-0.375,0 -0.625,0.125 -0.875,0.125l-0.25,0.125l-0.125,0" id="svg_26" stroke="#319aea" fill="none"/>
 </g>
</svg>