<svg width="20" height="20" xmlns="http://www.w3.org/2000/svg">

 <g>
  <title>Layer 1</title>
  <path d="m3.02906,2.46666c0,0 0.0625,0 0.0625,0c0.0625,0 0.0625,0 0.125,-0.125c0.0625,-0.125 0.16358,-0.19226 0.1875,-0.25c0.06765,-0.16332 0.21618,-0.23084 0.25,-0.3125c0.02392,-0.05774 0.0533,-0.13582 0.125,-0.1875c0.11337,-0.08172 0.14331,-0.08081 0.1875,-0.125c0.04419,-0.04419 0.1875,0 0.3125,0c0.1875,0 0.3125,0.0625 0.5,0.125c0.1875,0.0625 0.3125,0.0625 0.3125,0.0625c0.0625,0.0625 0.07152,0.05838 0.125,0.1875c0.07563,0.1826 0.19895,0.56043 0.25,0.875c0.08071,0.49738 0.0625,0.875 0.0625,1.125c0,0.25 0.03378,0.37834 0.0625,0.5c0.03211,0.13602 0.09289,0.17648 0.125,0.3125c0.02872,0.12166 0.0625,0.3125 0.1875,0.5625c0.0625,0.125 0.125,0.25 0.125,0.25c0.0625,0.125 0.15539,0.17648 0.1875,0.3125c0.01436,0.06083 0.08273,0.15751 0.1875,0.25c0.16894,0.14914 0.31356,0.30646 0.6875,0.375c0.31347,0.05745 0.4375,0.125 0.5,0.125c0.125,0 0.25,0 0.375,-0.0625c0,0 0.0625,0 0.0625,0c0.0625,-0.0625 0.13689,-0.1801 0.25,-0.375c0.14029,-0.24175 0.25384,-0.56197 0.3125,-1c0.06688,-0.49943 0.12303,-0.83825 0.25,-1.0625c0.04355,-0.07692 0.02628,-0.19286 0.0625,-0.3125c0.0653,-0.21568 0.14442,-0.44252 0.1875,-0.625c0.03211,-0.13602 0.0625,-0.25 0.125,-0.3125c0,0 0.11699,0.0056 0.25,0.1875c0.23622,0.32305 0.47997,0.59819 0.625,0.875c0.09173,0.17507 0.0625,0.375 0.0625,0.5625c0,0.375 0.11531,0.86153 0.25,1.5c0.10401,0.49304 0.125,0.8125 0.125,0.9375c0,0.125 0.01831,0.14331 0.0625,0.1875c0.04419,0.04419 0.0625,0.0625 0.0625,0.0625c0.0625,-0.0625 0.27748,-0.33977 0.625,-0.75c0.45706,-0.53954 0.77407,-0.83575 0.9375,-1.0625c0.05168,-0.0717 0.125,-0.125 0.1875,-0.1875c0,0 -0.09468,-0.21534 0.1875,-1c0.42564,-1.18358 0.66547,-2.06422 0.9375,-2c0.06083,0.01436 0.11868,0.37733 0.375,1.0625c0.30501,0.81534 0.5625,1.375 0.6875,1.625c0,0 0.00476,0.08642 0.0625,0.0625c0.08166,-0.03382 0.62847,-0.30686 1.75,-1c0.50156,-0.30998 0.5625,-0.3125 0.5625,0c0,0.4375 0.15617,0.87167 0.1875,1.3125c0.02215,0.31171 0,0.4375 0.0625,0.5c0.125,0.125 0.34962,0.34456 0.5,0.4375c0.16813,0.10391 0.3125,0.125 0.375,0.1875c0,0 0.03468,0.18992 0,0.4375c-0.06311,0.45061 -0.1875,0.5625 -0.1875,0.75c0,0 -0.02392,0.06726 0,0.125c0.03382,0.08166 0.125,0.0625 0.125,0.0625c0,0.0625 0.02135,0.13441 -0.125,0.4375c-0.2191,0.45376 -0.4375,0.6875 -0.625,0.875c-0.0625,0.0625 -0.0625,0.0625 -0.0625,0.125c0,0 -0.03858,0.06726 -0.0625,0.125c-0.03382,0.08166 -0.03246,0.18992 -0.0625,0.375c-0.03166,0.19509 -0.10036,0.50122 -0.125,0.75c-0.0314,0.31714 -0.17437,0.6299 -0.25,0.8125c-0.05348,0.12912 -0.09118,0.29334 -0.125,0.375c-0.02392,0.05774 -0.02392,0.19226 0,0.25c0.03382,0.08166 0.125,0.25 0.1875,0.3125c0.0625,0.0625 0.21618,0.04334 0.25,0.125c0.02392,0.05774 0.10584,0.09118 0.1875,0.125c0.05774,0.02392 0.1875,0 0.1875,0c0.0625,0 0.0625,0 0.0625,0c0.0625,0.0625 0.09118,0.10584 0.125,0.1875c0.07175,0.17323 0.09367,0.55917 0.125,1c0.03544,0.49874 0,0.75 0,1c0,0.125 0,0.125 0,0.1875c0,0.0625 -0.08081,0.08081 -0.125,0.125c-0.04419,0.04419 -0.0625,0.125 -0.0625,0.125c-0.3125,0.1875 -0.5,0.375 -0.75,0.5c-0.125,0.0625 -0.125,0.0625 -0.1875,0.125c0,0 -0.0625,0 -0.0625,0c-0.0625,-0.0625 -0.02618,-0.21368 -0.125,-0.3125c-0.09882,-0.09882 -0.125,-0.1875 -0.1875,-0.25c0,0 -0.06411,-0.02002 -0.1875,0c-0.39018,0.06332 -0.98753,0.52589 -1.875,0.9375c-0.4318,0.20027 -0.69683,0.34214 -0.75,0.375c-0.11888,0.07347 -0.0625,0.125 -0.0625,0.1875c0,0.125 -0.085,0.35055 -0.5625,0.8125c-0.63843,0.61764 -1.49293,0.89347 -2.125,1.125c-0.18558,0.06798 -0.25,0.0625 -0.25,0.0625c0,-0.0625 -0.03984,-0.31301 -0.0625,-0.8125c-0.03128,-0.68963 0.00424,-1.45255 -0.125,-2c-0.06422,-0.27203 -0.125,-0.4375 -0.125,-0.4375c0,-0.0625 -0.12208,-0.21869 -0.625,-0.25c-0.68617,-0.04272 -1.98572,0.35303 -3,0.6875c-0.43212,0.1425 -0.625,0.1875 -0.5625,0.1875c0.0625,0 0.03546,-0.12838 0,-0.3125c-0.06365,-0.3305 -0.24584,-0.75108 -0.3125,-1c-0.11769,-0.43952 -0.21104,-0.68046 -0.3125,-1.0625c-0.0818,-0.30801 -0.13402,-0.43338 -0.1875,-0.5625c-0.07563,-0.1826 -0.14103,-0.23731 -0.1875,-0.3125c-0.10391,-0.16812 -0.10469,-0.53875 -0.3125,-0.875c-0.37175,-0.6015 -0.83015,-0.8813 -1.375,-1.1875c-0.58682,-0.32979 -1.0625,-0.4375 -1.1875,-0.4375c0,0 0,-0.0625 0,-0.0625c0,-0.25 0.21415,-0.64149 0.375,-1.0625c0.15773,-0.41284 0.2186,-0.74536 0.25,-1.0625c0.02463,-0.24878 0,-0.375 0,-0.5c0,-0.125 0.04311,-0.25213 0,-0.6875c-0.0314,-0.31714 -0.125,-0.5625 -0.125,-0.75c0,-0.25 0,-0.375 0,-0.5c0,-0.0625 0,-0.1875 0,-0.1875c0,0.125 0.04962,0.38047 0.1875,0.6875c0.1145,0.25498 0.21618,0.41834 0.25,0.5c0.02392,0.05774 0.01831,0.10669 0.0625,0.0625c0.08839,-0.08839 0.13901,-0.30643 0.1875,-0.4375c0.08941,-0.24169 0.25,-0.5 0.3125,-0.6875c0.0625,-0.1875 0.0625,-0.25 0.0625,-0.3125c0,-0.0625 0,-0.1875 0,-0.3125c0,-0.125 0.02291,-0.3139 0,-0.5c-0.03149,-0.25576 -0.15483,-0.59233 -0.5,-0.9375c-0.34517,-0.34517 -0.60775,-0.63892 -0.8125,-0.875c-0.17374,-0.20032 -0.26831,-0.39331 -0.3125,-0.4375c-0.04419,-0.04419 -0.0625,-0.0625 -0.0625,-0.0625c0,0 0,-0.0625 0,-0.125l0,-0.0625" id="svg_15" stroke="#000" fill="none"/>
  <path d="m6.71656,9.40416c0,0.125 0,0.3125 0.0625,0.5625c0.0625,0.25 0.15601,0.43174 0.1875,0.6875c0.01527,0.12406 0.125,0.25 0.1875,0.375c0,0 0.0691,0.09045 0.125,0.0625c0.27951,-0.13975 0.55631,-0.61881 0.875,-0.9375c0.15934,-0.15934 0.125,-0.25 0.125,-0.3125c0,0 0,-0.0625 0,-0.0625c0,-0.125 0,-0.3125 0,-0.375c0,-0.0625 0,-0.125 0,-0.125c-0.0625,-0.0625 -0.125,-0.125 -0.125,-0.125c-0.0625,-0.0625 -0.0625,-0.125 -0.1875,-0.1875c0,0 -0.0625,0 -0.0625,0c-0.0625,0 -0.125,0 -0.1875,0c-0.125,0 -0.1875,0 -0.25,0c-0.0625,0 -0.125,0 -0.1875,0c0,0 -0.0625,0 -0.0625,0l-0.0625,0" id="svg_16" stroke="#000" fill="none"/>
  <path d="m10.40406,9.21666c-0.0625,0 -0.0625,0.0625 -0.0625,0.125c0,0.125 0,0.5625 0,1.1875c0,0.4375 0.0936,0.93286 0.125,1.25c0.01232,0.12439 0,0.1875 0,0.1875l0,0.0625l0,0" id="svg_17" stroke="#000" fill="none"/>
  <path d="m11.09156,10.40416c0,0 0.0625,0 0.0625,0c0.0625,0 0.0625,0 0.125,0c0.0625,0 0.24536,-0.0936 0.5625,-0.125c0.24878,-0.02463 0.3125,-0.0625 0.375,-0.0625c0.0625,0 0.25,0 0.375,-0.0625l0.0625,0" id="svg_18" stroke="#000" fill="none"/>
  <path d="m12.90406,8.52916c0,0 0,0.25 0,0.8125c0,0.625 0,1.125 0,1.5625c0,0.375 0.03084,0.61741 0.0625,0.8125c0.04005,0.24677 0.125,0.375 0.125,0.5l0,0.0625l0,0l0,0.0625" id="svg_19" stroke="#000" fill="none"/>
  <polyline stroke-linecap="round" id="svg_20" points="15.21655994001788,9.654155618976858 15.21655994001788,9.654155618976858 " stroke="#000" fill="none"/>
 </g>
</svg>