<?xml version="1.0" standalone="no"?><!DOCTYPE svg PUBLIC "-//W3C//DTD SVG 1.1//EN" "http://www.w3.org/Graphics/SVG/1.1/DTD/svg11.dtd"><svg t="1700996094638" class="icon" viewBox="0 0 1024 1024" version="1.1" xmlns="http://www.w3.org/2000/svg" p-id="10442" xmlns:xlink="http://www.w3.org/1999/xlink" width="200" height="200"><path d="M957.141333 666.026667c1.962667 5.205333 3.285333 11.733333 3.925334 19.584 0.682667 7.808-2.56 15.36-9.813334 22.485333-3.242667 3.285333-6.186667 6.4-8.789333 9.301333a176.298667 176.298667 0 0 1-6.826667 7.381334 47.658667 47.658667 0 0 1-6.826666 5.845333l-82.901334-81.536c3.712-5.290667 7.978667-7.850667 12.885334-12.416 4.864-4.565333 8.96-8.192 12.202666-10.794667 7.850667-7.168 16.341333-10.24 25.472-9.301333 9.130667 0.981333 16.64 3.114667 22.528 6.4 6.528 3.242667 13.525333 8.96 21.034667 17.066667 7.509333 8.192 13.226667 16.853333 17.109333 25.984z m-343.594666 214.4l37.205333-37.205334c9.813333-9.813333 20.565333-20.736 32.298667-32.810666 11.776-12.074667 23.466667-23.978667 35.242666-35.712 28.074667-28.074667 59.733333-59.392 94.976-93.994667l82.218667 82.218667-162.517333 162.56a1306.24 1306.24 0 0 0-33.28 34.218666c-3.242667 2.602667-6.826667 5.376-10.752 8.32a77.312 77.312 0 0 1-11.733334 7.338667 180.608 180.608 0 0 1-18.133333 7.338667 560.938667 560.938667 0 0 1-49.450667 15.189333 247.893333 247.893333 0 0 1-17.621333 3.925333c-7.808 1.28-13.056 0.298667-15.658667-2.986666-2.56-3.242667-3.242667-8.789333-1.962666-16.64a385.066667 385.066667 0 0 1 10.752-41.6c2.645333-8.106667 5.12-15.786667 7.381333-22.997334 2.261333-7.168 4.053333-12.032 5.376-14.677333 3.925333-8.448 9.130667-15.957333 15.658667-22.485333zM298.666667 85.333333a170.666667 170.666667 0 0 0-170.666667 170.666667v512a170.666667 170.666667 0 0 0 170.666667 170.666667h222.933333l19.626667-54.613334a128 128 0 0 1 29.909333-47.189333l264.533333-264.533333c16.64-16.64 38.485333-25.002667 60.330667-25.002667V256a170.666667 170.666667 0 0 0-170.666667-170.666667H298.666667z m64.298666 210.346667a42.666667 42.666667 0 1 1-85.333333 0 42.666667 42.666667 0 0 1 85.333333 0z m372.48 205.653333h-277.333333c-17.493333 0-32-14.506667-32-32s14.506667-32 32-32h277.333333c17.493333 0 32 14.506667 32 32s-14.506667 32-32 32z m0-170.666666h-277.333333c-17.493333 0-32-14.506667-32-32s14.506667-32 32-32h277.333333c17.493333 0 32 14.506667 32 32s-14.506667 32-32 32zM320.298667 512a42.666667 42.666667 0 1 1 0-85.333333 42.666667 42.666667 0 0 1 0 85.333333z" fill="#1296db" p-id="10443"></path></svg>